<svg width="44" height="44" viewBox="0 0 44 44" fill="none" xmlns="http://www.w3.org/2000/svg">
<path d="M1.33214e-05 10C1.33214e-05 5.28596 1.33214e-05 2.92893 1.46448 1.46447C2.92895 1.15847e-06 5.28597 1.15847e-06 10 1.15847e-06H34C38.7141 1.15847e-06 41.0711 1.15847e-06 42.5355 1.46447C44 2.92893 44 5.28596 44 10V34C44 38.714 44 41.0711 42.5355 42.5355C41.0711 44 38.7141 44 34 44H10C5.28597 44 2.92895 44 1.46448 42.5355C1.33214e-05 41.0711 1.33214e-05 38.714 1.33214e-05 34V10Z" fill="#4285F4"/>
<line x1="7.5" y1="7" x2="7.5" y2="37" stroke="white"/>
<path d="M19 28L25 22L19 16" stroke="white" stroke-width="2" stroke-linecap="round" stroke-linejoin="round"/>
</svg>
